
    <svg width="400" height="160" xmlns="http://www.w3.org/2000/svg" font-family="Segoe UI, Ubuntu, sans-serif">
        <style>
            .header { font-weight: 700; font-size: 16px; fill: #7aa2f7; }
            .stat-label { font-size: 12px; fill: #c0caf5; font-weight: 500; }
            .stat-value { font-size: 12px; fill: #7aa2f7; font-weight: 700; }
            .icon { fill: #bb9af7; }
            .streak-icon { fill: #ff9e64; }
            .streak-value { font-size: 24px; font-weight: 800; fill: #7aa2f7; }
            .streak-label { font-size: 10px; fill: #c0caf5; font-weight: 600; letter-spacing: 0.5px; }
            .grade-text { font-size: 22px; font-weight: 800; fill: #e0af68; }
            .box { fill: #1a1b27; stroke: #414868; stroke-width: 1px; rx: 10px; }
            .progress-ring-bg { fill: none; stroke: #24283b; stroke-width: 6; }
            .progress-ring-bar { fill: none; stroke: #e0af68; stroke-width: 6; stroke-linecap: round; }
        </style>
        
        <rect x="0.5" y="0.5" width="399" height="159" class="box"/>
        
        <text x="20" y="30" class="header">@fatihpnrbs'in İstatistikleri</text>

        <g transform="translate(20, 55)">
            <g transform="translate(0, 0)">
                <svg class="icon" width="14" height="14" viewBox="0 0 16 16"><path d="M8 .25a.75.75 0 01.673.418l1.882 3.815 4.21.612a.75.75 0 01.416 1.279l-3.046 2.97.719 4.192a.75.75 0 01-1.088.791L8 12.347l-3.766 1.98a.75.75 0 01-1.088-.79l.72-4.194L.818 6.374a.75.75 0 01.416-1.28l4.21-.611L7.327.668A.75.75 0 018 .25z"/></svg>
                <text x="20" y="11" class="stat-label">Yıldızlar:</text>
                <text x="85" y="11" class="stat-value">1</text>
            </g>
            <g transform="translate(0, 22)">
                <svg class="icon" width="14" height="14" viewBox="0 0 16 16"><path d="M11.93 8.5a4.002 4.002 0 01-7.86 0H.75a.75.75 0 010-1.5h3.32a4.002 4.002 0 017.86 0h3.32a.75.75 0 010 1.5h-3.32zM8 5.5a2.5 2.5 0 100 5 2.5 2.5 0 000-5z"/></svg>
                <text x="20" y="11" class="stat-label">Commitler:</text>
                <text x="85" y="11" class="stat-value">81</text>
            </g>
             <g transform="translate(0, 44)">
                <svg class="icon" width="14" height="14" viewBox="0 0 16 16"><path d="M1.5 3.25a2.25 2.25 0 113 2.122V6.5h9.75a.75.75 0 010 1.5H4.5v1.128a2.25 2.25 0 11-3 2.122v-8zM3.75 2a.75.75 0 100 1.5.75.75 0 000-1.5zM2.25 10a.75.75 0 101.5 0 .75.75 0 00-1.5 0zm11.25-5.5a2.25 2.25 0 110 4.5 2.25 2.25 0 010-4.5zM13.5 6a.75.75 0 100 1.5.75.75 0 000-1.5z"/></svg>
                <text x="20" y="11" class="stat-label">PR'lar:</text>
                <text x="85" y="11" class="stat-value">0</text>
            </g>
            <g transform="translate(0, 66)">
                <svg class="icon" width="14" height="14" viewBox="0 0 16 16"><path d="M8 8a3 3 0 100-6 3 3 0 000 6zm2-3a2 2 0 11-4 0 2 2 0 014 0zm4 8c0 1.1-1.567 2-5 2S2 14.1 2 13c0-1.224 1.688-2.5 5-2.5 3.312 0 5 1.276 5 2.5zM8 11.5c-2.952 0-4 1.047-4 1.5 0 .453 1.048 1.5 4 1.5 2.952 0 4-1.047 4-1.5 0-.453-1.048-1.5-4-1.5z"/></svg>
                <text x="20" y="11" class="stat-label">Takipçiler:</text>
                <text x="85" y="11" class="stat-value">4</text>
            </g>
        </g>

        <line x1="160" y1="50" x2="160" y2="135" stroke="#24283b" stroke-width="1"/>

        <g transform="translate(205, 55)">
            <svg class="streak-icon" x="10" y="-5" width="30" height="30" viewBox="0 0 24 24">
                <path d="M12 23c6.075 0 11-4.925 11-11S18.075 1 12 1 1 5.925 1 12s4.925 11 11 11zm0-22C17.523 2 22 6.477 22 12s-4.477 10-10 10S2 17.523 2 12 6.477 2 12 2z" fill-opacity="0.2"/>
                <path d="M15.64 14.732a3.425 3.425 0 01-1.23 2.082 3.426 3.426 0 01-3.052.54c.49-.664.988-1.88.477-2.99-1.025-2.228-3.068-2.49-2.85-5.16.12-1.45 1.028-2.555 1.965-3.393C12.845 4.076 13.35 2 13.35 2s.964 1.844.588 4.098c-.377 2.256-2.297 3.366-2.297 3.366s1.134.118 2.013 1.056c.88.938 1.463 2.255 1.986 4.212zM9.5 18.5l.006-.001c-.002.001-.004.001-.006.001z"/>
            </svg>
            <text x="25" y="50" class="streak-value" text-anchor="middle">1</text>
            <text x="25" y="65" class="streak-label" text-anchor="middle">GÜNLÜK SERİ</text>
        </g>

        <line x1="280" y1="50" x2="280" y2="135" stroke="#24283b" stroke-width="1"/>

        <g transform="translate(335, 92)">
            <circle class="progress-ring-bg" cx="0" cy="0" r="30"/>
            <circle class="progress-ring-bar" cx="0" cy="0" r="30" 
                    stroke-dasharray="188.4954" 
                    stroke-dashoffset="113.09723999999999" 
                    transform="rotate(-90)"/>
            <text x="0" y="8" class="grade-text" text-anchor="middle">B</text>
        </g>
    </svg>
    